# xmcd
#
# Track frame offsets: 
#        150
#        12937
#        22955
#        38060
#        49125
#        59265
#        69302
#        81645
#        92267
#        101945
#        111047
#        122890
#
# Disc length: 1770 seconds
#
# Revision: 0
# Processed by: cddbd v1.5.1PL0 Copyright (c) Steve Scherf et al.
# Submitted via: ExactAudioCopy v0.95a5
#
DISCID=9806e80c
DTITLE=Patsy Cline with the Jordanaires - Showcase
DYEAR=1988
DGENRE=Country
TTITLE0=I Fall To Pieces
TTITLE1=Foolin' 'Round
TTITLE2=The Wayward Wind
TTITLE3=South Of The Border (Down Mexico Way)
TTITLE4=I Love You So Much It Hurts
TTITLE5=Seven Lonely Days
TTITLE6=Crazy
TTITLE7=San Antonio Rose
TTITLE8=True Love
TTITLE9=Walkin' After Midnight
TTITLE10=A Poor Man's Roses (Or a Rich Man's Gold)
TTITLE11=Have You Ever Been Lonely (Have You Ever Been Blue)
EXTD=
EXTT0=
EXTT1=
EXTT2=
EXTT3=
EXTT4=
EXTT5=
EXTT6=
EXTT7=
EXTT8=
EXTT9=
EXTT10=
EXTT11=
PLAYORDER=
